M48
; DRILL file {KiCad 7.0.7} date Fri Dec  8 08:50:16 2023
; FORMAT={-:-/ absolute / inch / decimal}
; #@! TF.CreationDate,2023-12-08T08:50:16+07:00
; #@! TF.GenerationSoftware,Kicad,Pcbnew,7.0.7
; #@! TF.FileFunction,Plated,1,2,PTH
FMAT,2
INCH
; #@! TA.AperFunction,Plated,PTH,ComponentDrill
T1C0.0315
; #@! TA.AperFunction,Plated,PTH,ComponentDrill
T2C0.0354
; #@! TA.AperFunction,Plated,PTH,ComponentDrill
T3C0.0394
; #@! TA.AperFunction,Plated,PTH,ComponentDrill
T4C0.0433
; #@! TA.AperFunction,Plated,PTH,ComponentDrill
T5C0.0472
%
G90
G05
T1
X3.55Y-3.2
X3.55Y-3.5
X3.65Y-3.2
X3.65Y-3.5
X3.75Y-3.2
X3.75Y-3.5
X3.85Y-3.2
X3.85Y-3.5
X3.95Y-3.2
X3.95Y-3.5
X4.05Y-3.2
X4.05Y-3.5
X4.15Y-3.2
X4.15Y-3.5
X4.25Y-3.2
X4.25Y-3.5
X4.3008Y-5.35
X4.3008Y-5.45
X4.3008Y-5.55
X4.3008Y-5.65
X4.3008Y-5.75
X4.3008Y-5.85
X4.3008Y-5.95
X4.3008Y-6.05
X4.35Y-3.2
X4.35Y-3.5
X4.45Y-3.2
X4.45Y-3.5
X4.55Y-3.2
X4.55Y-3.5
X4.6008Y-5.35
X4.6008Y-5.45
X4.6008Y-5.55
X4.6008Y-5.65
X4.6008Y-5.75
X4.6008Y-5.85
X4.6008Y-5.95
X4.6008Y-6.05
X4.65Y-3.2
X4.65Y-3.5
X4.75Y-3.2
X4.75Y-3.5
X4.85Y-3.2
X4.85Y-3.5
X5.2Y-3.3
X5.2Y-3.4921
X5.45Y-3.2516
X5.45Y-3.4484
X5.65Y-3.25
X5.65Y-3.4469
X5.8508Y-4.8
X6.0476Y-4.8
T2
X3.0508Y-4.5
X3.0508Y-4.9
X3.1508Y-3.15
X3.1508Y-3.55
X3.6508Y-5.25
X3.6508Y-5.65
X3.7008Y-5.9
X3.8008Y-5.25
X3.8008Y-5.65
X3.9508Y-5.35
X3.9508Y-5.75
X4.1008Y-5.9
X4.9508Y-5.35
X4.9508Y-5.75
X5.1008Y-5.35
X5.1008Y-5.75
X5.2508Y-5.35
X5.2508Y-5.75
X5.4008Y-5.25
X5.4008Y-5.65
T3
X2.9508Y-5.1
X2.9555Y-5.3
X3.0508Y-5.1
X3.2508Y-5.3
X3.45Y-5.6006
X3.45Y-5.7006
X3.45Y-5.8006
X3.55Y-2.9
X3.65Y-2.9
X3.6506Y-3.65
X3.75Y-2.9
X3.7506Y-3.65
X3.85Y-2.9
X3.8506Y-3.65
X3.95Y-2.9
X3.9506Y-3.65
X4.05Y-2.9
X4.0506Y-3.65
X4.15Y-2.9
X4.1506Y-3.65
X4.1508Y-5.65
X4.1508Y-5.75
X4.25Y-2.9
X4.2506Y-3.65
X4.3506Y-3.65
X4.65Y-3.05
X4.7508Y-5.65
X4.7508Y-5.75
X5.05Y-2.95
X5.05Y-3.05
X5.15Y-2.95
X5.15Y-3.05
X5.25Y-2.95
X5.25Y-3.05
X5.35Y-2.95
X5.35Y-3.05
X5.45Y-2.95
X5.45Y-3.05
X5.56Y-5.35
X5.56Y-5.45
X5.56Y-5.55
X5.56Y-5.65
X5.6502Y-2.9502
X5.8508Y-3.2524
X5.8508Y-3.5476
X5.9008Y-5.15
X6.0008Y-5.15
T4
X5.938Y-4.25
X5.938Y-4.35
X5.938Y-4.45
T5
X3.0508Y-3.75
X3.0508Y-4.35
X5.9008Y-3.7882
X5.9008Y-3.9882
T0
M30
