%TF.GenerationSoftware,KiCad,Pcbnew,7.0.7*%
%TF.CreationDate,2023-12-08T08:50:08+07:00*%
%TF.ProjectId,schem,73636865-6d2e-46b6-9963-61645f706362,rev?*%
%TF.SameCoordinates,Original*%
%TF.FileFunction,Soldermask,Top*%
%TF.FilePolarity,Negative*%
%FSLAX46Y46*%
G04 Gerber Fmt 4.6, Leading zero omitted, Abs format (unit mm)*
G04 Created by KiCad (PCBNEW 7.0.7) date 2023-12-08 08:50:08*
%MOMM*%
%LPD*%
G01*
G04 APERTURE LIST*
%ADD10R,1.800000X1.800000*%
%ADD11O,1.800000X1.800000*%
%ADD12R,1.700000X1.700000*%
%ADD13R,2.000000X1.905000*%
%ADD14O,2.000000X1.905000*%
%ADD15O,1.700000X1.700000*%
%ADD16C,2.400000*%
%ADD17O,2.400000X2.400000*%
%ADD18R,1.600000X1.600000*%
%ADD19O,1.600000X1.600000*%
%ADD20C,1.600000*%
%ADD21C,2.000000*%
%ADD22C,1.500000*%
G04 APERTURE END LIST*
D10*
%TO.C,D13*%
X92730000Y-133350000D03*
D11*
X92730000Y-143510000D03*
%TD*%
D12*
%TO.C,J6*%
X143515000Y-74935000D03*
%TD*%
D10*
%TO.C,D16*%
X96540000Y-143510000D03*
D11*
X96540000Y-133350000D03*
%TD*%
D13*
%TO.C,U3*%
X150825000Y-113030000D03*
D14*
X150825000Y-110490000D03*
X150825000Y-107950000D03*
%TD*%
D10*
%TO.C,D20*%
X125750000Y-135890000D03*
D11*
X125750000Y-146050000D03*
%TD*%
D12*
%TO.C,J7*%
X87630000Y-142255000D03*
D15*
X87630000Y-144795000D03*
X87630000Y-147335000D03*
%TD*%
D16*
%TO.C,FB2*%
X149880000Y-101300000D03*
D17*
X149880000Y-96220000D03*
%TD*%
D12*
%TO.C,M1*%
X105430000Y-143510000D03*
D15*
X105430000Y-146050000D03*
%TD*%
D12*
%TO.C,J2*%
X152420000Y-130810000D03*
D15*
X149880000Y-130810000D03*
%TD*%
D10*
%TO.C,D11*%
X77490000Y-114300000D03*
D11*
X77490000Y-124460000D03*
%TD*%
D10*
%TO.C,D17*%
X133370000Y-135890000D03*
D11*
X133370000Y-146050000D03*
%TD*%
D18*
%TO.C,U2*%
X109240000Y-135890000D03*
D19*
X109240000Y-138430000D03*
X109240000Y-140970000D03*
X109240000Y-143510000D03*
X109240000Y-146050000D03*
X109240000Y-148590000D03*
X109240000Y-151130000D03*
X109240000Y-153670000D03*
X116860000Y-153670000D03*
X116860000Y-151130000D03*
X116860000Y-148590000D03*
X116860000Y-146050000D03*
X116860000Y-143510000D03*
X116860000Y-140970000D03*
X116860000Y-138430000D03*
X116860000Y-135890000D03*
%TD*%
D10*
%TO.C,D18*%
X137180000Y-143510000D03*
D11*
X137180000Y-133350000D03*
%TD*%
D20*
%TO.C,C6*%
X143510000Y-82550000D03*
X143510000Y-87550000D03*
%TD*%
D10*
%TO.C,D14*%
X94000000Y-149860000D03*
D11*
X104160000Y-149860000D03*
%TD*%
D10*
%TO.C,D15*%
X100350000Y-146050000D03*
D11*
X100350000Y-135890000D03*
%TD*%
D12*
%TO.C,J5*%
X138430000Y-74930000D03*
D15*
X138430000Y-77470000D03*
X135890000Y-74930000D03*
X135890000Y-77470000D03*
X133350000Y-74930000D03*
X133350000Y-77470000D03*
X130810000Y-74930000D03*
X130810000Y-77470000D03*
X128270000Y-74930000D03*
X128270000Y-77470000D03*
%TD*%
D12*
%TO.C,M2*%
X120670000Y-146050000D03*
D15*
X120670000Y-143510000D03*
%TD*%
D12*
%TO.C,J4*%
X107950000Y-73660000D03*
D15*
X105410000Y-73660000D03*
X102870000Y-73660000D03*
X100330000Y-73660000D03*
X97790000Y-73660000D03*
X95250000Y-73660000D03*
X92710000Y-73660000D03*
X90170000Y-73660000D03*
%TD*%
D16*
%TO.C,R11*%
X77490000Y-110490000D03*
D17*
X77490000Y-95250000D03*
%TD*%
D10*
%TO.C,D8*%
X80030000Y-90170000D03*
D11*
X80030000Y-80010000D03*
%TD*%
D21*
%TO.C,C2*%
X75070000Y-134620000D03*
X82570000Y-134620000D03*
%TD*%
D12*
%TO.C,J8*%
X141224000Y-135890000D03*
D15*
X141224000Y-138430000D03*
X141224000Y-140970000D03*
X141224000Y-143510000D03*
%TD*%
D21*
%TO.C,C3*%
X148610000Y-82610000D03*
X148610000Y-90110000D03*
%TD*%
D20*
%TO.C,C5*%
X138430000Y-82590000D03*
X138430000Y-87590000D03*
%TD*%
D22*
%TO.C,Y1*%
X132080000Y-83820000D03*
X132080000Y-88700000D03*
%TD*%
D12*
%TO.C,J1*%
X118110000Y-77470000D03*
%TD*%
D18*
%TO.C,U1*%
X90170000Y-88900000D03*
D19*
X92710000Y-88900000D03*
X95250000Y-88900000D03*
X97790000Y-88900000D03*
X100330000Y-88900000D03*
X102870000Y-88900000D03*
X105410000Y-88900000D03*
X107950000Y-88900000D03*
X110490000Y-88900000D03*
X113030000Y-88900000D03*
X115570000Y-88900000D03*
X118110000Y-88900000D03*
X120650000Y-88900000D03*
X123190000Y-88900000D03*
X123190000Y-81280000D03*
X120650000Y-81280000D03*
X118110000Y-81280000D03*
X115570000Y-81280000D03*
X113030000Y-81280000D03*
X110490000Y-81280000D03*
X107950000Y-81280000D03*
X105410000Y-81280000D03*
X102870000Y-81280000D03*
X100330000Y-81280000D03*
X97790000Y-81280000D03*
X95250000Y-81280000D03*
X92710000Y-81280000D03*
X90170000Y-81280000D03*
%TD*%
D10*
%TO.C,D19*%
X129560000Y-146050000D03*
D11*
X129560000Y-135890000D03*
%TD*%
D12*
%TO.C,SW1*%
X74950000Y-129540000D03*
D15*
X77490000Y-129540000D03*
%TD*%
D18*
%TO.C,C1*%
X153610000Y-121920000D03*
D20*
X148610000Y-121920000D03*
%TD*%
D12*
%TO.C,J9*%
X92725000Y-92710000D03*
D15*
X95265000Y-92710000D03*
X97805000Y-92710000D03*
X100345000Y-92710000D03*
X102885000Y-92710000D03*
X105425000Y-92710000D03*
X107965000Y-92710000D03*
X110505000Y-92710000D03*
%TD*%
M02*
