%TF.GenerationSoftware,KiCad,Pcbnew,7.0.7*%
%TF.CreationDate,2023-12-08T08:50:08+07:00*%
%TF.ProjectId,schem,73636865-6d2e-46b6-9963-61645f706362,rev?*%
%TF.SameCoordinates,Original*%
%TF.FileFunction,Copper,L2,Bot*%
%TF.FilePolarity,Positive*%
%FSLAX46Y46*%
G04 Gerber Fmt 4.6, Leading zero omitted, Abs format (unit mm)*
G04 Created by KiCad (PCBNEW 7.0.7) date 2023-12-08 08:50:08*
%MOMM*%
%LPD*%
G01*
G04 APERTURE LIST*
%TA.AperFunction,ComponentPad*%
%ADD10R,1.800000X1.800000*%
%TD*%
%TA.AperFunction,ComponentPad*%
%ADD11O,1.800000X1.800000*%
%TD*%
%TA.AperFunction,ComponentPad*%
%ADD12R,1.700000X1.700000*%
%TD*%
%TA.AperFunction,ComponentPad*%
%ADD13R,2.000000X1.905000*%
%TD*%
%TA.AperFunction,ComponentPad*%
%ADD14O,2.000000X1.905000*%
%TD*%
%TA.AperFunction,ComponentPad*%
%ADD15O,1.700000X1.700000*%
%TD*%
%TA.AperFunction,ComponentPad*%
%ADD16C,2.400000*%
%TD*%
%TA.AperFunction,ComponentPad*%
%ADD17O,2.400000X2.400000*%
%TD*%
%TA.AperFunction,ComponentPad*%
%ADD18R,1.600000X1.600000*%
%TD*%
%TA.AperFunction,ComponentPad*%
%ADD19O,1.600000X1.600000*%
%TD*%
%TA.AperFunction,ComponentPad*%
%ADD20C,1.600000*%
%TD*%
%TA.AperFunction,ComponentPad*%
%ADD21C,2.000000*%
%TD*%
%TA.AperFunction,ComponentPad*%
%ADD22C,1.500000*%
%TD*%
G04 APERTURE END LIST*
D10*
%TO.P,D13,1,K*%
%TO.N,VCC*%
X92730000Y-133350000D03*
D11*
%TO.P,D13,2,A*%
%TO.N,Net-(D13-A)*%
X92730000Y-143510000D03*
%TD*%
D12*
%TO.P,J6,1,Pin_1*%
%TO.N,Net-(J5-Pin_1)*%
X143515000Y-74935000D03*
%TD*%
D10*
%TO.P,D16,1,K*%
%TO.N,Net-(D13-A)*%
X96540000Y-143510000D03*
D11*
%TO.P,D16,2,A*%
%TO.N,GND*%
X96540000Y-133350000D03*
%TD*%
D13*
%TO.P,U3,1,IN*%
%TO.N,Net-(J2-Pin_1)*%
X150825000Y-113030000D03*
D14*
%TO.P,U3,2,GND*%
%TO.N,GND*%
X150825000Y-110490000D03*
%TO.P,U3,3,OUT*%
%TO.N,Net-(U3-OUT)*%
X150825000Y-107950000D03*
%TD*%
D10*
%TO.P,D20,1,K*%
%TO.N,VCC*%
X125750000Y-135890000D03*
D11*
%TO.P,D20,2,A*%
%TO.N,Net-(D19-K)*%
X125750000Y-146050000D03*
%TD*%
D12*
%TO.P,J7,1,Pin_1*%
%TO.N,Net-(J7-Pin_1)*%
X87630000Y-142255000D03*
D15*
%TO.P,J7,2,Pin_2*%
%TO.N,Net-(J7-Pin_2)*%
X87630000Y-144795000D03*
%TO.P,J7,3,Pin_3*%
%TO.N,Net-(J7-Pin_3)*%
X87630000Y-147335000D03*
%TD*%
D16*
%TO.P,FB2,1*%
%TO.N,Net-(U3-OUT)*%
X149880000Y-101300000D03*
D17*
%TO.P,FB2,2*%
%TO.N,VCC*%
X149880000Y-96220000D03*
%TD*%
D12*
%TO.P,M1,1,+*%
%TO.N,Net-(D13-A)*%
X105430000Y-143510000D03*
D15*
%TO.P,M1,2,-*%
%TO.N,Net-(D14-A)*%
X105430000Y-146050000D03*
%TD*%
D12*
%TO.P,J2,1,Pin_1*%
%TO.N,Net-(J2-Pin_1)*%
X152420000Y-130810000D03*
D15*
%TO.P,J2,2,Pin_2*%
%TO.N,GND*%
X149880000Y-130810000D03*
%TD*%
D10*
%TO.P,D11,1,K*%
%TO.N,Net-(D11-K)*%
X77490000Y-114300000D03*
D11*
%TO.P,D11,2,A*%
%TO.N,GND*%
X77490000Y-124460000D03*
%TD*%
D10*
%TO.P,D17,1,K*%
%TO.N,VCC*%
X133370000Y-135890000D03*
D11*
%TO.P,D17,2,A*%
%TO.N,Net-(D17-A)*%
X133370000Y-146050000D03*
%TD*%
D18*
%TO.P,U2,1,EN1\u002C2*%
%TO.N,Net-(J7-Pin_1)*%
X109240000Y-135890000D03*
D19*
%TO.P,U2,2,1A*%
%TO.N,Net-(J7-Pin_3)*%
X109240000Y-138430000D03*
%TO.P,U2,3,1Y*%
%TO.N,Net-(D13-A)*%
X109240000Y-140970000D03*
%TO.P,U2,4,GND*%
%TO.N,GND*%
X109240000Y-143510000D03*
%TO.P,U2,5,GND*%
X109240000Y-146050000D03*
%TO.P,U2,6,2Y*%
%TO.N,Net-(D14-A)*%
X109240000Y-148590000D03*
%TO.P,U2,7,2A*%
%TO.N,Net-(J7-Pin_2)*%
X109240000Y-151130000D03*
%TO.P,U2,8,VCC2*%
%TO.N,VCC*%
X109240000Y-153670000D03*
%TO.P,U2,9,EN3\u002C4*%
%TO.N,Net-(J8-Pin_2)*%
X116860000Y-153670000D03*
%TO.P,U2,10,3A*%
%TO.N,Net-(J8-Pin_4)*%
X116860000Y-151130000D03*
%TO.P,U2,11,3Y*%
%TO.N,Net-(D19-K)*%
X116860000Y-148590000D03*
%TO.P,U2,12,GND*%
%TO.N,GND*%
X116860000Y-146050000D03*
%TO.P,U2,13,GND*%
X116860000Y-143510000D03*
%TO.P,U2,14,4Y*%
%TO.N,Net-(D17-A)*%
X116860000Y-140970000D03*
%TO.P,U2,15,4A*%
%TO.N,Net-(J8-Pin_3)*%
X116860000Y-138430000D03*
%TO.P,U2,16,VCC1*%
%TO.N,VCC*%
X116860000Y-135890000D03*
%TD*%
D10*
%TO.P,D18,1,K*%
%TO.N,Net-(D17-A)*%
X137180000Y-143510000D03*
D11*
%TO.P,D18,2,A*%
%TO.N,GND*%
X137180000Y-133350000D03*
%TD*%
D20*
%TO.P,C6,1*%
%TO.N,GND*%
X143510000Y-82550000D03*
%TO.P,C6,2*%
%TO.N,Net-(U1-XTAL2{slash}PB7)*%
X143510000Y-87550000D03*
%TD*%
D10*
%TO.P,D14,1,K*%
%TO.N,VCC*%
X94000000Y-149860000D03*
D11*
%TO.P,D14,2,A*%
%TO.N,Net-(D14-A)*%
X104160000Y-149860000D03*
%TD*%
D10*
%TO.P,D15,1,K*%
%TO.N,Net-(D14-A)*%
X100350000Y-146050000D03*
D11*
%TO.P,D15,2,A*%
%TO.N,GND*%
X100350000Y-135890000D03*
%TD*%
D12*
%TO.P,J5,1,Pin_1*%
%TO.N,Net-(J5-Pin_1)*%
X138430000Y-74930000D03*
D15*
%TO.P,J5,2,Pin_2*%
%TO.N,VCC*%
X138430000Y-77470000D03*
%TO.P,J5,3,Pin_3*%
%TO.N,unconnected-(J5-Pin_3-Pad3)*%
X135890000Y-74930000D03*
%TO.P,J5,4,Pin_4*%
%TO.N,GND*%
X135890000Y-77470000D03*
%TO.P,J5,5,Pin_5*%
%TO.N,Net-(D11-K)*%
X133350000Y-74930000D03*
%TO.P,J5,6,Pin_6*%
%TO.N,GND*%
X133350000Y-77470000D03*
%TO.P,J5,7,Pin_7*%
%TO.N,Net-(J5-Pin_7)*%
X130810000Y-74930000D03*
%TO.P,J5,8,Pin_8*%
%TO.N,GND*%
X130810000Y-77470000D03*
%TO.P,J5,9,Pin_9*%
%TO.N,Net-(J5-Pin_9)*%
X128270000Y-74930000D03*
%TO.P,J5,10,Pin_10*%
%TO.N,GND*%
X128270000Y-77470000D03*
%TD*%
D12*
%TO.P,M2,1,+*%
%TO.N,Net-(D19-K)*%
X120670000Y-146050000D03*
D15*
%TO.P,M2,2,-*%
%TO.N,Net-(D17-A)*%
X120670000Y-143510000D03*
%TD*%
D12*
%TO.P,J4,1,Pin_1*%
%TO.N,VCC*%
X107950000Y-73660000D03*
D15*
%TO.P,J4,2,Pin_2*%
%TO.N,GND*%
X105410000Y-73660000D03*
%TO.P,J4,3,Pin_3*%
%TO.N,Net-(J4-Pin_3)*%
X102870000Y-73660000D03*
%TO.P,J4,4,Pin_4*%
%TO.N,Net-(J4-Pin_4)*%
X100330000Y-73660000D03*
%TO.P,J4,5,Pin_5*%
%TO.N,Net-(J4-Pin_5)*%
X97790000Y-73660000D03*
%TO.P,J4,6,Pin_6*%
%TO.N,Net-(J4-Pin_6)*%
X95250000Y-73660000D03*
%TO.P,J4,7,Pin_7*%
%TO.N,Net-(J4-Pin_7)*%
X92710000Y-73660000D03*
%TO.P,J4,8,Pin_8*%
%TO.N,Net-(J4-Pin_8)*%
X90170000Y-73660000D03*
%TD*%
D16*
%TO.P,R11,1*%
%TO.N,VCC*%
X77490000Y-110490000D03*
D17*
%TO.P,R11,2*%
%TO.N,Net-(D11-K)*%
X77490000Y-95250000D03*
%TD*%
D10*
%TO.P,D8,1,K*%
%TO.N,VCC*%
X80030000Y-90170000D03*
D11*
%TO.P,D8,2,A*%
%TO.N,Net-(D11-K)*%
X80030000Y-80010000D03*
%TD*%
D21*
%TO.P,C2,1*%
%TO.N,Net-(D11-K)*%
X75070000Y-134620000D03*
%TO.P,C2,2*%
%TO.N,GND*%
X82570000Y-134620000D03*
%TD*%
D12*
%TO.P,J8,1,Pin_1*%
%TO.N,VCC*%
X141224000Y-135890000D03*
D15*
%TO.P,J8,2,Pin_2*%
%TO.N,Net-(J8-Pin_2)*%
X141224000Y-138430000D03*
%TO.P,J8,3,Pin_3*%
%TO.N,Net-(J8-Pin_3)*%
X141224000Y-140970000D03*
%TO.P,J8,4,Pin_4*%
%TO.N,Net-(J8-Pin_4)*%
X141224000Y-143510000D03*
%TD*%
D21*
%TO.P,C3,1*%
%TO.N,VCC*%
X148610000Y-82610000D03*
%TO.P,C3,2*%
%TO.N,GND*%
X148610000Y-90110000D03*
%TD*%
D20*
%TO.P,C5,1*%
%TO.N,GND*%
X138430000Y-82590000D03*
%TO.P,C5,2*%
%TO.N,Net-(U1-XTAL1{slash}PB6)*%
X138430000Y-87590000D03*
%TD*%
D22*
%TO.P,Y1,1,1*%
%TO.N,Net-(U1-XTAL1{slash}PB6)*%
X132080000Y-83820000D03*
%TO.P,Y1,2,2*%
%TO.N,Net-(U1-XTAL2{slash}PB7)*%
X132080000Y-88700000D03*
%TD*%
D12*
%TO.P,J1,1,Pin_1*%
%TO.N,Net-(J1-Pin_1)*%
X118110000Y-77470000D03*
%TD*%
D18*
%TO.P,U1,1,~{RESET}/PC6*%
%TO.N,Net-(D11-K)*%
X90170000Y-88900000D03*
D19*
%TO.P,U1,2,PD0*%
%TO.N,Net-(J9-Pin_1)*%
X92710000Y-88900000D03*
%TO.P,U1,3,PD1*%
%TO.N,Net-(J9-Pin_2)*%
X95250000Y-88900000D03*
%TO.P,U1,4,PD2*%
%TO.N,Net-(J9-Pin_3)*%
X97790000Y-88900000D03*
%TO.P,U1,5,PD3*%
%TO.N,Net-(J9-Pin_4)*%
X100330000Y-88900000D03*
%TO.P,U1,6,PD4*%
%TO.N,Net-(J9-Pin_5)*%
X102870000Y-88900000D03*
%TO.P,U1,7,VCC*%
%TO.N,VCC*%
X105410000Y-88900000D03*
%TO.P,U1,8,GND*%
%TO.N,GND*%
X107950000Y-88900000D03*
%TO.P,U1,9,XTAL1/PB6*%
%TO.N,Net-(U1-XTAL1{slash}PB6)*%
X110490000Y-88900000D03*
%TO.P,U1,10,XTAL2/PB7*%
%TO.N,Net-(U1-XTAL2{slash}PB7)*%
X113030000Y-88900000D03*
%TO.P,U1,11,PD5*%
%TO.N,Net-(J9-Pin_8)*%
X115570000Y-88900000D03*
%TO.P,U1,12,PD6*%
%TO.N,unconnected-(U1-PD6-Pad12)*%
X118110000Y-88900000D03*
%TO.P,U1,13,PD7*%
%TO.N,unconnected-(U1-PD7-Pad13)*%
X120650000Y-88900000D03*
%TO.P,U1,14,PB0*%
%TO.N,unconnected-(U1-PB0-Pad14)*%
X123190000Y-88900000D03*
%TO.P,U1,15,PB1*%
%TO.N,unconnected-(U1-PB1-Pad15)*%
X123190000Y-81280000D03*
%TO.P,U1,16,PB2*%
%TO.N,unconnected-(U1-PB2-Pad16)*%
X120650000Y-81280000D03*
%TO.P,U1,17,PB3*%
%TO.N,Net-(J1-Pin_1)*%
X118110000Y-81280000D03*
%TO.P,U1,18,PB4*%
%TO.N,Net-(J5-Pin_9)*%
X115570000Y-81280000D03*
%TO.P,U1,19,PB5*%
%TO.N,Net-(J5-Pin_7)*%
X113030000Y-81280000D03*
%TO.P,U1,20,AVCC*%
%TO.N,VCC*%
X110490000Y-81280000D03*
%TO.P,U1,21,AREF*%
%TO.N,unconnected-(U1-AREF-Pad21)*%
X107950000Y-81280000D03*
%TO.P,U1,22,GND*%
%TO.N,GND*%
X105410000Y-81280000D03*
%TO.P,U1,23,PC0*%
%TO.N,Net-(J4-Pin_3)*%
X102870000Y-81280000D03*
%TO.P,U1,24,PC1*%
%TO.N,Net-(J4-Pin_4)*%
X100330000Y-81280000D03*
%TO.P,U1,25,PC2*%
%TO.N,Net-(J4-Pin_5)*%
X97790000Y-81280000D03*
%TO.P,U1,26,PC3*%
%TO.N,Net-(J4-Pin_6)*%
X95250000Y-81280000D03*
%TO.P,U1,27,PC4*%
%TO.N,Net-(J4-Pin_7)*%
X92710000Y-81280000D03*
%TO.P,U1,28,PC5*%
%TO.N,Net-(J4-Pin_8)*%
X90170000Y-81280000D03*
%TD*%
D10*
%TO.P,D19,1,K*%
%TO.N,Net-(D19-K)*%
X129560000Y-146050000D03*
D11*
%TO.P,D19,2,A*%
%TO.N,GND*%
X129560000Y-135890000D03*
%TD*%
D12*
%TO.P,SW1,1,1*%
%TO.N,Net-(D11-K)*%
X74950000Y-129540000D03*
D15*
%TO.P,SW1,2,2*%
%TO.N,GND*%
X77490000Y-129540000D03*
%TD*%
D18*
%TO.P,C1,1*%
%TO.N,Net-(J2-Pin_1)*%
X153610000Y-121920000D03*
D20*
%TO.P,C1,2*%
%TO.N,GND*%
X148610000Y-121920000D03*
%TD*%
D12*
%TO.P,J9,1,Pin_1*%
%TO.N,Net-(J9-Pin_1)*%
X92725000Y-92710000D03*
D15*
%TO.P,J9,2,Pin_2*%
%TO.N,Net-(J9-Pin_2)*%
X95265000Y-92710000D03*
%TO.P,J9,3,Pin_3*%
%TO.N,Net-(J9-Pin_3)*%
X97805000Y-92710000D03*
%TO.P,J9,4,Pin_4*%
%TO.N,Net-(J9-Pin_4)*%
X100345000Y-92710000D03*
%TO.P,J9,5,Pin_5*%
%TO.N,Net-(J9-Pin_5)*%
X102885000Y-92710000D03*
%TO.P,J9,6,Pin_6*%
%TO.N,VCC*%
X105425000Y-92710000D03*
%TO.P,J9,7,Pin_7*%
%TO.N,GND*%
X107965000Y-92710000D03*
%TO.P,J9,8,Pin_8*%
%TO.N,Net-(J9-Pin_8)*%
X110505000Y-92710000D03*
%TD*%
M02*
