M48
; DRILL file {KiCad 7.0.7} date Fri Dec  8 08:48:00 2023
; FORMAT={-:-/ absolute / inch / decimal}
; #@! TF.CreationDate,2023-12-08T08:48:00+07:00
; #@! TF.GenerationSoftware,Kicad,Pcbnew,7.0.7
; #@! TF.FileFunction,Plated,1,2,PTH
FMAT,2
INCH
; #@! TA.AperFunction,Plated,PTH,ComponentDrill
T1C0.0354
; #@! TA.AperFunction,Plated,PTH,ComponentDrill
T2C0.0394
; #@! TA.AperFunction,Plated,PTH,ComponentDrill
T3C0.0472
%
G90
G05
T1
X2.8Y-2.15
X2.8Y-2.25
X2.8Y-2.45
X2.8Y-2.55
X3.5Y-1.55
X3.5Y-1.65
X3.5Y-1.8531
X3.5Y-1.9531
X4.3Y-1.55
X4.3Y-1.65
X4.3Y-1.85
X4.3Y-1.95
X5.1Y-1.55
X5.1Y-1.65
X5.1Y-1.85
X5.1Y-1.95
X5.9Y-1.55
X5.9Y-1.65
X5.9Y-1.85
X5.9Y-1.95
X6.6Y-2.15
X6.6Y-2.25
X6.6Y-2.45
X6.6Y-2.55
T2
X4.3Y-2.6
X4.4Y-2.6
X4.5Y-2.6
X4.6Y-2.6
X4.7Y-2.6
X4.8Y-2.6
X4.9Y-2.6
X5.0Y-2.6
X5.1Y-2.6
T3
X2.5Y-2.05
X2.5Y-2.65
X3.1Y-2.25
X3.1Y-2.85
X3.2Y-1.45
X3.2Y-2.05
X3.8Y-1.45
X3.8Y-2.05
X4.0Y-1.45
X4.0Y-2.05
X4.6Y-1.45
X4.6Y-2.05
X4.8Y-1.45
X4.8Y-2.05
X5.4Y-1.45
X5.4Y-2.05
X5.6Y-1.45
X5.6Y-2.05
X6.2Y-1.45
X6.2Y-2.05
X6.3Y-2.25
X6.3Y-2.85
X6.9Y-2.05
X6.9Y-2.65
T0
M30
