%TF.GenerationSoftware,KiCad,Pcbnew,7.0.7*%
%TF.CreationDate,2023-12-08T08:47:56+07:00*%
%TF.ProjectId,sensor,73656e73-6f72-42e6-9b69-6361645f7063,rev?*%
%TF.SameCoordinates,Original*%
%TF.FileFunction,Copper,L1,Top*%
%TF.FilePolarity,Positive*%
%FSLAX46Y46*%
G04 Gerber Fmt 4.6, Leading zero omitted, Abs format (unit mm)*
G04 Created by KiCad (PCBNEW 7.0.7) date 2023-12-08 08:47:56*
%MOMM*%
%LPD*%
G01*
G04 APERTURE LIST*
%TA.AperFunction,ComponentPad*%
%ADD10R,1.800000X1.800000*%
%TD*%
%TA.AperFunction,ComponentPad*%
%ADD11C,1.800000*%
%TD*%
%TA.AperFunction,ComponentPad*%
%ADD12C,2.400000*%
%TD*%
%TA.AperFunction,ComponentPad*%
%ADD13O,2.400000X2.400000*%
%TD*%
%TA.AperFunction,ComponentPad*%
%ADD14R,1.700000X1.700000*%
%TD*%
%TA.AperFunction,ComponentPad*%
%ADD15O,1.700000X1.700000*%
%TD*%
%TA.AperFunction,Conductor*%
%ADD16C,1.600000*%
%TD*%
%TA.AperFunction,Conductor*%
%ADD17C,2.000000*%
%TD*%
G04 APERTURE END LIST*
D10*
%TO.P,D9,1,K*%
%TO.N,N/C*%
X149860000Y-39370000D03*
D11*
%TO.P,D9,2,A*%
X149860000Y-41910000D03*
%TD*%
D12*
%TO.P,R8,1*%
%TO.N,N/C*%
X121920000Y-36830000D03*
D13*
%TO.P,R8,2*%
X121920000Y-52070000D03*
%TD*%
D14*
%TO.P,J3,1,Pin_1*%
%TO.N,N/C*%
X109220000Y-66040000D03*
D15*
%TO.P,J3,2,Pin_2*%
X111760000Y-66040000D03*
%TO.P,J3,3,Pin_3*%
X114300000Y-66040000D03*
%TO.P,J3,4,Pin_4*%
X116840000Y-66040000D03*
%TO.P,J3,5,Pin_5*%
X119380000Y-66040000D03*
%TO.P,J3,6,Pin_6*%
X121920000Y-66040000D03*
%TO.P,J3,7,Pin_7*%
X124460000Y-66040000D03*
%TO.P,J3,8,Pin_8*%
X127000000Y-66040000D03*
%TO.P,J3,9,Pin_9*%
X129540000Y-66040000D03*
%TD*%
D12*
%TO.P,R4,1*%
%TO.N,N/C*%
X81280000Y-36830000D03*
D13*
%TO.P,R4,2*%
X81280000Y-52070000D03*
%TD*%
D10*
%TO.P,D5,1,K*%
%TO.N,N/C*%
X109220000Y-39370000D03*
D11*
%TO.P,D5,2,A*%
X109220000Y-41910000D03*
%TD*%
D10*
%TO.P,D12,1,K*%
%TO.N,N/C*%
X109220000Y-49530000D03*
D11*
%TO.P,D12,2,A*%
X109220000Y-46990000D03*
%TD*%
D12*
%TO.P,R1,1*%
%TO.N,N/C*%
X78740000Y-72390000D03*
D13*
%TO.P,R1,2*%
X78740000Y-57150000D03*
%TD*%
D10*
%TO.P,D2,1,K*%
%TO.N,N/C*%
X71120000Y-64770000D03*
D11*
%TO.P,D2,2,A*%
X71120000Y-62230000D03*
%TD*%
D10*
%TO.P,D10,1,K*%
%TO.N,N/C*%
X149860000Y-49530000D03*
D11*
%TO.P,D10,2,A*%
X149860000Y-46990000D03*
%TD*%
D10*
%TO.P,D22,1,K*%
%TO.N,N/C*%
X167640000Y-64770000D03*
D11*
%TO.P,D22,2,A*%
X167640000Y-62230000D03*
%TD*%
D12*
%TO.P,R3,1*%
%TO.N,N/C*%
X96520000Y-36830000D03*
D13*
%TO.P,R3,2*%
X96520000Y-52070000D03*
%TD*%
D10*
%TO.P,D7,1,K*%
%TO.N,N/C*%
X129540000Y-39370000D03*
D11*
%TO.P,D7,2,A*%
X129540000Y-41910000D03*
%TD*%
D12*
%TO.P,R5,1*%
%TO.N,N/C*%
X101600000Y-36830000D03*
D13*
%TO.P,R5,2*%
X101600000Y-52070000D03*
%TD*%
D12*
%TO.P,R10,1*%
%TO.N,N/C*%
X157480000Y-36830000D03*
D13*
%TO.P,R10,2*%
X157480000Y-52070000D03*
%TD*%
D10*
%TO.P,D6,1,K*%
%TO.N,N/C*%
X129540000Y-49530000D03*
D11*
%TO.P,D6,2,A*%
X129540000Y-46990000D03*
%TD*%
D10*
%TO.P,D21,1,K*%
%TO.N,N/C*%
X167640000Y-57150000D03*
D11*
%TO.P,D21,2,A*%
X167640000Y-54610000D03*
%TD*%
D10*
%TO.P,D1,1,K*%
%TO.N,N/C*%
X71120000Y-57150000D03*
D11*
%TO.P,D1,2,A*%
X71120000Y-54610000D03*
%TD*%
D10*
%TO.P,D4,1,K*%
%TO.N,N/C*%
X88900000Y-49610000D03*
D11*
%TO.P,D4,2,A*%
X88900000Y-47070000D03*
%TD*%
D12*
%TO.P,R7,1*%
%TO.N,N/C*%
X137160000Y-36830000D03*
D13*
%TO.P,R7,2*%
X137160000Y-52070000D03*
%TD*%
D10*
%TO.P,D3,1,K*%
%TO.N,N/C*%
X88900000Y-39370000D03*
D11*
%TO.P,D3,2,A*%
X88900000Y-41910000D03*
%TD*%
D12*
%TO.P,R12,1*%
%TO.N,N/C*%
X160020000Y-72390000D03*
D13*
%TO.P,R12,2*%
X160020000Y-57150000D03*
%TD*%
D12*
%TO.P,R9,1*%
%TO.N,N/C*%
X142240000Y-36830000D03*
D13*
%TO.P,R9,2*%
X142240000Y-52070000D03*
%TD*%
D12*
%TO.P,R6,1*%
%TO.N,N/C*%
X116840000Y-36830000D03*
D13*
%TO.P,R6,2*%
X116840000Y-52070000D03*
%TD*%
D12*
%TO.P,R2,1*%
%TO.N,N/C*%
X63500000Y-52070000D03*
D13*
%TO.P,R2,2*%
X63500000Y-67310000D03*
%TD*%
D12*
%TO.P,R13,1*%
%TO.N,N/C*%
X175260000Y-52070000D03*
D13*
%TO.P,R13,2*%
X175260000Y-67310000D03*
%TD*%
D16*
%TO.N,*%
X111760000Y-59690000D02*
X109220000Y-57150000D01*
X157480000Y-39370000D02*
X165100000Y-46990000D01*
X78740000Y-72390000D02*
X63500000Y-72390000D01*
X68580000Y-67310000D02*
X71120000Y-64770000D01*
X129540000Y-49530000D02*
X127000000Y-52070000D01*
X71120000Y-62230000D02*
X71120000Y-59690000D01*
X137160000Y-36830000D02*
X142240000Y-36830000D01*
X137160000Y-49530000D02*
X137160000Y-52070000D01*
X142240000Y-49530000D02*
X149860000Y-41910000D01*
X60960000Y-69850000D02*
X60960000Y-54610000D01*
X170180000Y-57150000D02*
X167640000Y-59690000D01*
X144780000Y-54610000D02*
X149860000Y-49530000D01*
X83820000Y-57150000D02*
X76200000Y-64770000D01*
X71120000Y-59690000D02*
X68580000Y-57150000D01*
X129540000Y-41910000D02*
X137160000Y-49530000D01*
X116840000Y-52070000D02*
X116840000Y-66040000D01*
X88900000Y-41910000D02*
X96520000Y-49530000D01*
X157480000Y-36830000D02*
X160020000Y-36830000D01*
X116840000Y-39370000D02*
X119380000Y-41910000D01*
X109220000Y-49530000D02*
X111760000Y-52070000D01*
X149860000Y-39370000D02*
X129540000Y-39370000D01*
X109220000Y-46990000D02*
X116840000Y-39370000D01*
X109220000Y-67310000D02*
X110490000Y-68580000D01*
X129540000Y-46990000D02*
X121920000Y-39370000D01*
X81280000Y-39370000D02*
X88900000Y-39370000D01*
X86360000Y-59690000D02*
X78740000Y-67310000D01*
X63500000Y-52070000D02*
X78740000Y-36830000D01*
X142240000Y-52070000D02*
X142240000Y-49530000D01*
X78740000Y-67310000D02*
X78740000Y-72390000D01*
X111760000Y-54610000D02*
X93980000Y-54610000D01*
X71120000Y-59690000D02*
X71120000Y-57150000D01*
X119380000Y-36830000D02*
X121920000Y-36830000D01*
X101600000Y-36830000D02*
X116840000Y-36830000D01*
X121920000Y-39370000D02*
X129540000Y-39370000D01*
X124460000Y-57150000D02*
X127000000Y-54610000D01*
X96520000Y-49530000D02*
X96520000Y-52070000D01*
X116840000Y-36830000D02*
X119380000Y-36830000D01*
X124460000Y-57150000D02*
X124460000Y-66040000D01*
X88900000Y-39370000D02*
X109220000Y-39370000D01*
X167640000Y-59690000D02*
X167640000Y-62230000D01*
X111760000Y-59690000D02*
X111760000Y-66040000D01*
X110490000Y-68580000D02*
X128202081Y-68580000D01*
X78740000Y-36830000D02*
X81280000Y-36830000D01*
X73580000Y-47070000D02*
X81280000Y-39370000D01*
X119380000Y-41910000D02*
X121920000Y-39370000D01*
X160020000Y-57150000D02*
X162560000Y-54610000D01*
X81280000Y-36830000D02*
X96520000Y-36830000D01*
X165100000Y-46990000D02*
X170180000Y-52070000D01*
X114300000Y-57150000D02*
X114300000Y-66040000D01*
X101600000Y-49530000D02*
X101600000Y-52070000D01*
D17*
X88980000Y-49610000D02*
X88900000Y-49610000D01*
D16*
X128202081Y-68580000D02*
X129540000Y-67242081D01*
X160020000Y-67310000D02*
X152400000Y-59690000D01*
X160020000Y-72390000D02*
X160020000Y-67310000D01*
X162560000Y-54610000D02*
X167640000Y-54610000D01*
X142240000Y-36830000D02*
X157480000Y-36830000D01*
X129540000Y-62230000D02*
X129540000Y-66040000D01*
X76200000Y-54610000D02*
X71120000Y-54610000D01*
X129540000Y-67242081D02*
X129540000Y-66040000D01*
X109220000Y-66040000D02*
X109220000Y-67310000D01*
X149860000Y-46990000D02*
X165100000Y-46990000D01*
X177800000Y-69850000D02*
X177800000Y-54610000D01*
X109220000Y-62230000D02*
X109220000Y-66040000D01*
X154940000Y-57150000D02*
X129540000Y-57150000D01*
X63500000Y-67310000D02*
X68580000Y-67310000D01*
X109220000Y-57150000D02*
X83820000Y-57150000D01*
X160020000Y-72390000D02*
X175260000Y-72390000D01*
X119380000Y-41910000D02*
X119380000Y-66040000D01*
X78740000Y-57150000D02*
X76200000Y-54610000D01*
X111760000Y-52070000D02*
X116840000Y-52070000D01*
X127000000Y-59690000D02*
X127000000Y-66040000D01*
X175260000Y-52070000D02*
X160020000Y-36830000D01*
X86360000Y-52070000D02*
X81280000Y-52070000D01*
X68580000Y-52070000D02*
X73580000Y-47070000D01*
X106680000Y-59690000D02*
X86360000Y-59690000D01*
X93980000Y-54610000D02*
X88980000Y-49610000D01*
X132080000Y-59690000D02*
X129540000Y-62230000D01*
X114300000Y-57150000D02*
X111760000Y-54610000D01*
X177800000Y-54610000D02*
X175260000Y-52070000D01*
X121920000Y-52070000D02*
X121920000Y-66040000D01*
X162560000Y-64770000D02*
X154940000Y-57150000D01*
X149860000Y-49530000D02*
X152400000Y-52070000D01*
X152400000Y-59690000D02*
X132080000Y-59690000D01*
X63500000Y-72390000D02*
X60960000Y-69850000D01*
X60960000Y-54610000D02*
X63500000Y-52070000D01*
X167640000Y-59690000D02*
X167640000Y-57150000D01*
X149860000Y-39370000D02*
X157480000Y-39370000D01*
X109220000Y-41910000D02*
X101600000Y-49530000D01*
D17*
X88900000Y-49610000D02*
X88820000Y-49610000D01*
D16*
X127000000Y-52070000D02*
X121920000Y-52070000D01*
X109220000Y-39370000D02*
X116840000Y-39370000D01*
X167640000Y-64770000D02*
X162560000Y-64770000D01*
X170180000Y-67310000D02*
X167640000Y-64770000D01*
X152400000Y-52070000D02*
X157480000Y-52070000D01*
X127000000Y-54610000D02*
X144780000Y-54610000D01*
X119380000Y-36830000D02*
X137160000Y-36830000D01*
X109220000Y-62230000D02*
X106680000Y-59690000D01*
X68580000Y-57150000D02*
X68580000Y-52070000D01*
X175260000Y-67310000D02*
X170180000Y-67310000D01*
X129540000Y-57150000D02*
X127000000Y-59690000D01*
X96520000Y-36830000D02*
X101600000Y-36830000D01*
X175260000Y-72390000D02*
X177800000Y-69850000D01*
X88820000Y-49610000D02*
X86360000Y-52070000D01*
X73580000Y-47070000D02*
X88900000Y-47070000D01*
X170180000Y-52070000D02*
X170180000Y-57150000D01*
X76200000Y-64770000D02*
X71120000Y-64770000D01*
%TD*%
M02*
