%TF.GenerationSoftware,KiCad,Pcbnew,7.0.7*%
%TF.CreationDate,2023-12-08T08:47:56+07:00*%
%TF.ProjectId,sensor,73656e73-6f72-42e6-9b69-6361645f7063,rev?*%
%TF.SameCoordinates,Original*%
%TF.FileFunction,Soldermask,Bot*%
%TF.FilePolarity,Negative*%
%FSLAX46Y46*%
G04 Gerber Fmt 4.6, Leading zero omitted, Abs format (unit mm)*
G04 Created by KiCad (PCBNEW 7.0.7) date 2023-12-08 08:47:56*
%MOMM*%
%LPD*%
G01*
G04 APERTURE LIST*
%ADD10R,1.800000X1.800000*%
%ADD11C,1.800000*%
%ADD12C,2.400000*%
%ADD13O,2.400000X2.400000*%
%ADD14R,1.700000X1.700000*%
%ADD15O,1.700000X1.700000*%
G04 APERTURE END LIST*
D10*
%TO.C,D9*%
X149860000Y-39370000D03*
D11*
X149860000Y-41910000D03*
%TD*%
D12*
%TO.C,R8*%
X121920000Y-36830000D03*
D13*
X121920000Y-52070000D03*
%TD*%
D14*
%TO.C,J3*%
X109220000Y-66040000D03*
D15*
X111760000Y-66040000D03*
X114300000Y-66040000D03*
X116840000Y-66040000D03*
X119380000Y-66040000D03*
X121920000Y-66040000D03*
X124460000Y-66040000D03*
X127000000Y-66040000D03*
X129540000Y-66040000D03*
%TD*%
D12*
%TO.C,R4*%
X81280000Y-36830000D03*
D13*
X81280000Y-52070000D03*
%TD*%
D10*
%TO.C,D5*%
X109220000Y-39370000D03*
D11*
X109220000Y-41910000D03*
%TD*%
D10*
%TO.C,D12*%
X109220000Y-49530000D03*
D11*
X109220000Y-46990000D03*
%TD*%
D12*
%TO.C,R1*%
X78740000Y-72390000D03*
D13*
X78740000Y-57150000D03*
%TD*%
D10*
%TO.C,D2*%
X71120000Y-64770000D03*
D11*
X71120000Y-62230000D03*
%TD*%
D10*
%TO.C,D10*%
X149860000Y-49530000D03*
D11*
X149860000Y-46990000D03*
%TD*%
D10*
%TO.C,D22*%
X167640000Y-64770000D03*
D11*
X167640000Y-62230000D03*
%TD*%
D12*
%TO.C,R3*%
X96520000Y-36830000D03*
D13*
X96520000Y-52070000D03*
%TD*%
D10*
%TO.C,D7*%
X129540000Y-39370000D03*
D11*
X129540000Y-41910000D03*
%TD*%
D12*
%TO.C,R5*%
X101600000Y-36830000D03*
D13*
X101600000Y-52070000D03*
%TD*%
D12*
%TO.C,R10*%
X157480000Y-36830000D03*
D13*
X157480000Y-52070000D03*
%TD*%
D10*
%TO.C,D6*%
X129540000Y-49530000D03*
D11*
X129540000Y-46990000D03*
%TD*%
D10*
%TO.C,D21*%
X167640000Y-57150000D03*
D11*
X167640000Y-54610000D03*
%TD*%
D10*
%TO.C,D1*%
X71120000Y-57150000D03*
D11*
X71120000Y-54610000D03*
%TD*%
D10*
%TO.C,D4*%
X88900000Y-49610000D03*
D11*
X88900000Y-47070000D03*
%TD*%
D12*
%TO.C,R7*%
X137160000Y-36830000D03*
D13*
X137160000Y-52070000D03*
%TD*%
D10*
%TO.C,D3*%
X88900000Y-39370000D03*
D11*
X88900000Y-41910000D03*
%TD*%
D12*
%TO.C,R12*%
X160020000Y-72390000D03*
D13*
X160020000Y-57150000D03*
%TD*%
D12*
%TO.C,R9*%
X142240000Y-36830000D03*
D13*
X142240000Y-52070000D03*
%TD*%
D12*
%TO.C,R6*%
X116840000Y-36830000D03*
D13*
X116840000Y-52070000D03*
%TD*%
D12*
%TO.C,R2*%
X63500000Y-52070000D03*
D13*
X63500000Y-67310000D03*
%TD*%
D12*
%TO.C,R13*%
X175260000Y-52070000D03*
D13*
X175260000Y-67310000D03*
%TD*%
M02*
